HIERARCHY
ROOT Hips
{
	OFFSET -3.958830 18.904000 13.208200
	CHANNELS 6 Xposition Yposition Zposition Zrotation Yrotation Xrotation 
	JOINT LHipJoint
	{
		OFFSET 0.000000 0.000000 0.000000
		CHANNELS 3 Zrotation Yrotation Xrotation
		JOINT LeftUpLeg
		{
			OFFSET 1.800000 -1.400000 0.085000
			CHANNELS 3 Zrotation Yrotation Xrotation
			JOINT LeftLeg
			{
				OFFSET 2.215000 -6.000000 0.000000
				CHANNELS 3 Zrotation Yrotation Xrotation
				JOINT LeftFoot
				{
					OFFSET 2.500000 -6.900000 0.000000
					CHANNELS 3 Zrotation Yrotation Xrotation
					JOINT LeftToeBase
					{
						OFFSET 0.200000 -0.500000 1.950000
						CHANNELS 3 Zrotation Yrotation Xrotation
						End Site
						{
							OFFSET 0.000000 0.000000 0.000000
						}
					}
				}
			}
		}
	}
	JOINT RHipJoint
	{
		OFFSET 0.000000 0.000000 0.000000
		CHANNELS 3 Zrotation Yrotation Xrotation
		JOINT RightUpLeg
		{
			OFFSET -1.800000 -1.400000 0.085000
			CHANNELS 3 Zrotation Yrotation Xrotation
			JOINT RightLeg
			{
				OFFSET -2.215000 -6.000000 0.000000
				CHANNELS 3 Zrotation Yrotation Xrotation
				JOINT RightFoot
				{
					OFFSET -2.500000 -6.900000 0.000000
					CHANNELS 3 Zrotation Yrotation Xrotation
					JOINT RightToeBase
					{
						OFFSET -0.200000 -0.500000 1.950000
						CHANNELS 3 Zrotation Yrotation Xrotation
						End Site
						{
							OFFSET 0.000000 0.000000 0.000000
						}
					}
				}
			}
		}
	}
	JOINT LowerBack
	{
		OFFSET 0.000000 0.000000 0.000000
		CHANNELS 3 Zrotation Yrotation Xrotation
		JOINT Spine
		{
			OFFSET -0.087000 1.940000 -0.288900
			CHANNELS 3 Zrotation Yrotation Xrotation
			JOINT Spine1
			{
				OFFSET 0.000000 1.950000 0.060000
				CHANNELS 3 Zrotation Yrotation Xrotation
				JOINT Neck
				{
					OFFSET 0.000000 0.000000 0.000000
					CHANNELS 3 Zrotation Yrotation Xrotation
					JOINT Neck1
					{
						OFFSET 0.000000 1.600000 0.340000
						CHANNELS 3 Zrotation Yrotation Xrotation
						JOINT Head
						{
							OFFSET 0.000000 1.667000 -0.240000
							CHANNELS 3 Zrotation Yrotation Xrotation
							End Site
							{
								OFFSET 0.000000 0.000000 0.000000
							}
						}
					}
				}
				JOINT LeftShoulder
				{
					OFFSET 0.000000 0.000000 0.000000
					CHANNELS 3 Zrotation Yrotation Xrotation
					JOINT LeftArm
					{
						OFFSET 2.700000 1.550000 -0.730000
						CHANNELS 3 Zrotation Yrotation Xrotation
						JOINT LeftForeArm
						{
							OFFSET 5.450000 0.000000 0.000000
							CHANNELS 3 Zrotation Yrotation Xrotation
							JOINT LeftHand
							{
								OFFSET 3.450000 0.000000 0.000000
								CHANNELS 3 Zrotation Yrotation Xrotation
								JOINT LeftHandIndex1
								{
									OFFSET 0.750000 0.000000 0.000000
									CHANNELS 3 Zrotation Yrotation Xrotation
									End Site
									{
										OFFSET 0.000000 0.000000 0.000000
									}
								}
							}
						}
					}
				}
				JOINT RightShoulder
				{
					OFFSET 0.000000 0.000000 0.000000
					CHANNELS 3 Zrotation Yrotation Xrotation
					JOINT RightArm
					{
						OFFSET -2.700000 1.550000 -0.730000
						CHANNELS 3 Zrotation Yrotation Xrotation
						JOINT RightForeArm
						{
							OFFSET -5.450000 0.000000 0.000000
							CHANNELS 3 Zrotation Yrotation Xrotation
							JOINT RightHand
							{
								OFFSET -3.450000 0.000000 0.000000
								CHANNELS 3 Zrotation Yrotation Xrotation
								JOINT RightHandIndex1
								{
									OFFSET -0.750000 0.000000 0.000000
									CHANNELS 3 Zrotation Yrotation Xrotation
									End Site
									{
										OFFSET 0.000000 0.000000 0.000000
									}
								}
							}
						}
					}
				}
			}
		}
	}
}
MOTION
Frames: 10
Frame Time: 0.016667
-1.477030 16.700230 -0.074400 -2.896940 -40.669109 11.349345 -15.314840 14.704175 3.557879 15.969756 -2.397228 -8.889550 -7.731798 5.994364 7.162723 0.396693 4.534113 3.100946 -0.422640 -0.491510 -0.380050 17.852412 -9.541404 3.327858 -6.932392 3.708886 -32.522897 -6.224644 -0.763976 9.014339 0.424257 -1.195895 4.095155 -0.342280 0.371810 -0.065240 -2.172048 -6.059149 -8.302833 6.016212 -6.538461 10.333040 5.311755 -3.066464 -28.665999 2.510497 -10.798891 -4.935242 -24.299994 17.839045 23.010700 1.032650 16.594020 11.248530 5.052362 24.335150 0.602567 -12.118659 18.202213 -4.172609 6.106950 -3.969729 -0.034317 -3.892096 3.095025 -0.008360 0.175910 -0.236140 0.039250 -5.446639 -18.487649 -1.672982 53.965811 -73.688714 -37.607205 -89.096109 53.280653 -29.457352 3.075017 -1.114792 -0.182850 0.020510 0.189180 0.036430 
-1.522030 16.696410 -0.069150 -3.142102 -40.670151 11.750784 -15.314769 14.695864 3.558721 16.253971 -2.410727 -8.987985 -7.609420 5.974092 7.123275 0.398291 4.531815 3.100516 -0.429380 -0.501370 -0.382880 17.850524 -9.546379 3.335135 -6.661844 3.852828 -32.384873 -5.760268 -0.829538 9.394109 0.428915 -1.195779 4.097929 -0.349830 0.371050 -0.064270 -2.172098 -6.014068 -8.307016 6.208534 -6.301115 10.079146 5.458434 -2.743930 -29.078038 2.505261 -10.858400 -4.733277 -24.252774 17.551838 23.000489 0.779800 16.522390 11.285200 4.713530 24.523290 0.568990 -12.347455 18.494231 -4.213780 6.673205 -3.921760 -0.004679 -3.907233 3.083941 -0.009140 0.176610 -0.237480 0.037750 -5.091701 -18.549836 -2.002137 55.898595 -73.922360 -37.394091 -88.583414 50.056978 -27.696027 2.964991 -1.217751 -0.182430 0.016730 0.190890 0.036240 
-1.600000 16.693780 -0.070150 -3.314666 -40.446082 12.097263 -15.314922 14.709320 3.574162 16.629102 -2.409901 -9.221644 -7.646107 6.035075 7.306570 0.401927 4.553384 3.090193 -0.435840 -0.511240 -0.381970 17.841214 -9.563850 3.332162 -6.228639 4.027818 -32.009325 -5.090700 -0.938701 10.211434 0.431294 -1.208064 4.096846 -0.357460 0.370120 -0.064640 -2.144737 -5.990661 -8.322501 6.134396 -6.105588 9.799579 5.987330 -2.440581 -29.737082 2.337566 -10.826483 -4.457564 -24.246815 17.315434 23.437954 0.604530 16.423510 11.396940 4.527053 25.296645 0.383450 -12.774314 18.649410 -4.258964 7.289027 -4.021372 0.030202 -3.926190 3.062381 -0.007340 0.176420 -0.236540 0.035380 -4.527808 -19.303838 -2.063044 56.043199 -73.176760 -36.207968 -91.272951 48.609595 -28.563809 2.807725 -1.179871 -0.183420 0.016720 0.191950 0.035000 
-1.681340 16.695460 -0.069520 -3.823563 -39.870321 12.660631 -15.313219 14.777949 3.520234 17.392863 -2.434200 -9.611114 -6.612145 5.988056 8.048096 0.382542 4.516264 3.090863 -0.434460 -0.514730 -0.377340 17.830678 -9.573637 3.356015 -5.692143 4.253305 -31.641156 -4.788047 -0.961386 10.444112 0.433672 -1.197942 4.103922 -0.360380 0.360770 -0.067720 -2.123995 -6.004975 -8.324046 6.497366 -5.659460 9.597625 6.682565 -1.755835 -30.384492 2.137440 -10.891718 -4.241612 -24.625901 16.827932 23.994664 0.375890 15.935610 11.389440 3.777341 25.771404 0.017812 -13.458602 18.151825 -4.290036 8.127890 -4.107150 0.067119 -3.942583 3.034205 -0.000680 0.168740 -0.233240 0.033190 -3.345440 -19.521278 -1.968968 56.671100 -72.744553 -34.974707 -93.087771 45.445427 -28.471348 2.686071 -1.263884 -0.183240 0.016640 0.190890 0.032220 
-1.777480 16.701790 -0.071090 -4.462698 -38.864670 13.265253 -15.326035 14.821873 3.487904 18.476741 -2.482776 -10.184751 -5.743950 5.946231 8.601780 0.372760 4.503083 3.074906 -0.433920 -0.520460 -0.373040 17.814408 -9.572803 3.346337 -5.002539 4.521880 -31.121492 -4.008780 -1.117940 11.591530 0.432380 -1.232004 4.091535 -0.368010 0.346980 -0.064570 -2.085264 -6.016044 -8.298596 6.743088 -4.993194 9.264243 7.415553 -0.895645 -30.752118 2.009348 -10.831843 -4.164778 -24.851684 16.108951 24.881776 0.145710 15.216600 11.526350 2.856072 25.973443 -0.531359 -14.464545 16.530328 -4.283270 9.002570 -3.950706 0.098048 -3.963294 3.004773 0.002790 0.161010 -0.227890 0.028130 -2.054563 -19.512204 -1.628923 58.279942 -71.788785 -33.815044 -95.384588 41.118693 -28.412135 2.584762 -1.444102 -0.175170 0.007880 0.191530 0.030430 
-1.885570 16.709290 -0.087370 -4.809547 -38.056178 13.546203 -15.340627 14.856298 3.454417 19.417408 -2.518731 -10.652837 -5.041203 5.932347 9.129779 0.372184 4.509215 3.057608 -0.437050 -0.533130 -0.361720 17.803030 -9.551410 3.343508 -4.390820 4.761034 -30.851149 -3.785951 -1.164585 12.270998 0.428186 -1.248584 4.084789 -0.381740 0.334060 -0.056000 -2.055790 -6.039238 -8.272844 6.568988 -4.759726 9.044010 8.032322 -0.524647 -30.692037 1.879826 -10.443998 -4.500155 -24.312031 15.613642 26.025440 -0.099050 14.999250 11.755810 2.009176 26.039706 -1.058431 -14.877783 15.593320 -4.180749 9.502933 -3.803456 0.127313 -3.981103 2.977292 0.009700 0.157600 -0.218600 0.021930 -0.791025 -19.772685 -0.623012 57.459973 -67.784230 -30.513298 -100.435425 37.898568 -30.616188 2.502025 -1.562374 -0.168910 -0.005010 0.189550 0.024700 
-2.000160 16.716520 -0.100960 -5.314343 -37.036005 14.060626 -15.349526 14.877151 3.424829 20.359724 -2.573945 -11.349433 -4.186635 5.860370 9.651871 0.361967 4.484338 3.047976 -0.437140 -0.541480 -0.350320 17.794048 -9.542706 3.359069 -3.794389 5.062856 -30.691759 -3.119857 -1.317021 13.402881 0.422872 -1.297618 4.063910 -0.390410 0.320760 -0.050080 -2.042622 -6.000243 -8.275351 6.408199 -4.414830 8.795936 8.857759 0.032605 -30.607570 1.663291 -10.001281 -5.075045 -23.571530 14.947283 27.168110 -0.213350 14.530340 11.871570 1.353408 25.755693 -1.538139 -15.274228 14.280416 -4.065976 9.357995 -4.174226 0.120740 -3.985547 2.963669 0.016040 0.153130 -0.211440 0.016130 0.438808 -19.696069 0.528853 55.231305 -63.000420 -26.361427 -105.844857 33.909292 -32.212176 2.498101 -1.748291 -0.164340 -0.016230 0.186770 0.018990 
-2.108420 16.714220 -0.123560 -5.639231 -35.778642 14.017467 -15.370811 14.923807 3.397560 21.344586 -2.560881 -11.926783 -3.324224 5.836642 10.329186 0.341013 4.490969 3.021206 -0.412590 -0.517860 -0.315280 17.771498 -9.539334 3.339571 -3.716176 5.229474 -30.317765 -1.742866 -1.673224 14.841275 0.404011 -1.408306 4.014537 -0.374370 0.295670 -0.044440 -1.979488 -6.022919 -8.269041 5.950949 -4.334985 8.796974 10.010497 0.261334 -29.783901 1.351255 -9.623410 -5.692276 -23.185830 14.708607 28.321964 -0.717320 14.597230 11.360880 0.943618 25.547967 -1.982576 -16.529644 12.687425 -3.990474 9.359963 -4.498243 0.102124 -4.000178 2.939460 0.023660 0.149260 -0.196600 0.009500 1.562716 -19.681243 1.890893 50.055611 -56.767028 -20.709509 -114.716434 32.899586 -40.660878 2.430736 -1.833867 -0.158700 -0.022080 0.173920 0.004690 
-2.218580 16.711550 -0.149130 -5.816019 -35.289462 13.413965 -15.385976 14.999943 3.372674 22.176709 -2.414919 -11.732434 -2.763034 5.931858 10.960246 0.323538 4.571555 2.969484 -0.368420 -0.469190 -0.252990 17.754161 -9.539032 3.300576 -3.588457 5.335817 -29.680939 -0.696302 -2.014953 16.436591 0.365045 -1.553119 3.943509 -0.341640 0.257610 -0.034630 -1.922058 -6.114709 -8.252508 5.626631 -4.975285 9.097288 10.676707 -0.199504 -28.447693 1.149704 -9.215175 -6.435186 -22.760621 15.699680 29.789904 -1.370200 16.041820 10.432270 0.992547 25.640137 -2.241187 -17.059432 12.774739 -3.943539 9.096693 -5.168270 0.087806 -4.009055 2.924600 0.042800 0.144440 -0.165780 -0.001120 1.851761 -19.956241 3.231357 43.253907 -48.593371 -13.406932 -124.595773 34.669203 -56.705245 2.356295 -1.872199 -0.153800 -0.027560 0.152040 -0.022110 
-2.331480 16.707530 -0.179510 -5.590428 -34.949757 11.961808 -15.369608 15.082532 3.314864 22.673093 -2.169156 -10.953844 -2.200166 6.058867 11.720667 0.296918 4.660481 2.915837 -0.303060 -0.394780 -0.168500 17.759703 -9.625954 3.227845 -3.655910 5.238639 -28.592186 0.153988 -2.394047 18.170352 0.304112 -1.754858 3.846209 -0.292530 0.205040 -0.025160 -1.912746 -6.095654 -8.211033 5.050695 -5.916756 9.614418 10.275011 -1.148997 -26.674300 1.131039 -8.613585 -7.173576 -21.832990 17.236984 32.089115 -1.951140 17.920430 9.129090 0.428678 24.980652 -2.487315 -16.145940 13.326266 -3.707948 9.447485 -5.730386 0.102289 -4.014410 2.906229 0.073940 0.133490 -0.120040 -0.011950 2.165475 -19.651140 4.222748 37.996586 -40.129793 -7.354705 -133.481993 37.468895 -76.561782 2.347355 -2.045294 -0.148070 -0.029020 0.119970 -0.057720 
